G04 (created by PCBNEW (2013-07-07 BZR 4022)-stable) date 11/1/2014 8:09:35 PM*
%MOIN*%
G04 Gerber Fmt 3.4, Leading zero omitted, Abs format*
%FSLAX34Y34*%
G01*
G70*
G90*
G04 APERTURE LIST*
%ADD10C,0.00590551*%
%ADD11C,0.0075*%
%ADD12C,0.005*%
%ADD13C,0.0039*%
%ADD14C,0.012*%
%ADD15C,0.0059*%
%ADD16C,0.0043*%
G04 APERTURE END LIST*
G54D10*
G54D11*
X150292Y-87521D02*
X150192Y-87378D01*
X150121Y-87521D02*
X150121Y-87221D01*
X150235Y-87221D01*
X150264Y-87235D01*
X150278Y-87250D01*
X150292Y-87278D01*
X150292Y-87321D01*
X150278Y-87350D01*
X150264Y-87364D01*
X150235Y-87378D01*
X150121Y-87378D01*
X150407Y-87435D02*
X150550Y-87435D01*
X150378Y-87521D02*
X150478Y-87221D01*
X150578Y-87521D01*
X150650Y-87221D02*
X150721Y-87521D01*
X150778Y-87307D01*
X150835Y-87521D01*
X150907Y-87221D01*
X143678Y-99921D02*
X143678Y-99621D01*
X143750Y-99621D01*
X143792Y-99635D01*
X143821Y-99664D01*
X143835Y-99692D01*
X143850Y-99750D01*
X143850Y-99792D01*
X143835Y-99850D01*
X143821Y-99878D01*
X143792Y-99907D01*
X143750Y-99921D01*
X143678Y-99921D01*
X143992Y-99921D02*
X144050Y-99921D01*
X144078Y-99907D01*
X144092Y-99892D01*
X144121Y-99850D01*
X144135Y-99792D01*
X144135Y-99678D01*
X144121Y-99650D01*
X144107Y-99635D01*
X144078Y-99621D01*
X144021Y-99621D01*
X143992Y-99635D01*
X143978Y-99650D01*
X143964Y-99678D01*
X143964Y-99750D01*
X143978Y-99778D01*
X143992Y-99792D01*
X144021Y-99807D01*
X144078Y-99807D01*
X144107Y-99792D01*
X144121Y-99778D01*
X144135Y-99750D01*
X144164Y-86821D02*
X144164Y-87064D01*
X144178Y-87092D01*
X144192Y-87107D01*
X144221Y-87121D01*
X144278Y-87121D01*
X144307Y-87107D01*
X144321Y-87092D01*
X144335Y-87064D01*
X144335Y-86821D01*
X144464Y-86850D02*
X144478Y-86835D01*
X144507Y-86821D01*
X144578Y-86821D01*
X144607Y-86835D01*
X144621Y-86850D01*
X144635Y-86878D01*
X144635Y-86907D01*
X144621Y-86950D01*
X144450Y-87121D01*
X144635Y-87121D01*
X144692Y-87150D02*
X144921Y-87150D01*
X145164Y-87092D02*
X145150Y-87107D01*
X145107Y-87121D01*
X145078Y-87121D01*
X145035Y-87107D01*
X145007Y-87078D01*
X144992Y-87050D01*
X144978Y-86992D01*
X144978Y-86950D01*
X144992Y-86892D01*
X145007Y-86864D01*
X145035Y-86835D01*
X145078Y-86821D01*
X145107Y-86821D01*
X145150Y-86835D01*
X145164Y-86850D01*
X145450Y-87121D02*
X145278Y-87121D01*
X145364Y-87121D02*
X145364Y-86821D01*
X145335Y-86864D01*
X145307Y-86892D01*
X145278Y-86907D01*
X148357Y-99621D02*
X148542Y-99621D01*
X148442Y-99735D01*
X148485Y-99735D01*
X148514Y-99750D01*
X148528Y-99764D01*
X148542Y-99792D01*
X148542Y-99864D01*
X148528Y-99892D01*
X148514Y-99907D01*
X148485Y-99921D01*
X148400Y-99921D01*
X148371Y-99907D01*
X148357Y-99892D01*
X148671Y-99892D02*
X148685Y-99907D01*
X148671Y-99921D01*
X148657Y-99907D01*
X148671Y-99892D01*
X148671Y-99921D01*
X148785Y-99621D02*
X148971Y-99621D01*
X148871Y-99735D01*
X148914Y-99735D01*
X148942Y-99750D01*
X148957Y-99764D01*
X148971Y-99792D01*
X148971Y-99864D01*
X148957Y-99892D01*
X148942Y-99907D01*
X148914Y-99921D01*
X148828Y-99921D01*
X148800Y-99907D01*
X148785Y-99892D01*
X149057Y-99621D02*
X149157Y-99921D01*
X149257Y-99621D01*
X145271Y-99635D02*
X145242Y-99621D01*
X145200Y-99621D01*
X145157Y-99635D01*
X145128Y-99664D01*
X145114Y-99692D01*
X145100Y-99750D01*
X145100Y-99792D01*
X145114Y-99850D01*
X145128Y-99878D01*
X145157Y-99907D01*
X145200Y-99921D01*
X145228Y-99921D01*
X145271Y-99907D01*
X145285Y-99892D01*
X145285Y-99792D01*
X145228Y-99792D01*
X145414Y-99921D02*
X145414Y-99621D01*
X145585Y-99921D01*
X145585Y-99621D01*
X145728Y-99921D02*
X145728Y-99621D01*
X145800Y-99621D01*
X145842Y-99635D01*
X145871Y-99664D01*
X145885Y-99692D01*
X145900Y-99750D01*
X145900Y-99792D01*
X145885Y-99850D01*
X145871Y-99878D01*
X145842Y-99907D01*
X145800Y-99921D01*
X145728Y-99921D01*
G54D12*
X146980Y-91050D02*
X147410Y-91050D01*
X146980Y-91550D02*
X147410Y-91550D01*
X146980Y-92050D02*
X147410Y-92050D01*
X146980Y-90550D02*
X147410Y-90550D01*
X147410Y-90050D02*
X146980Y-90050D01*
X147410Y-92550D02*
X146980Y-92550D01*
X147410Y-93050D02*
X146980Y-93050D01*
X147410Y-93550D02*
X146980Y-93550D01*
X145420Y-93550D02*
X144990Y-93550D01*
X145420Y-93050D02*
X144990Y-93050D01*
X145420Y-92550D02*
X144990Y-92550D01*
X145420Y-90050D02*
X144990Y-90050D01*
X144990Y-90550D02*
X145420Y-90550D01*
X144990Y-92050D02*
X145420Y-92050D01*
X144990Y-91550D02*
X145420Y-91550D01*
X144990Y-91050D02*
X145420Y-91050D01*
X145896Y-90200D02*
G75*
G03X145896Y-90200I-186J0D01*
G74*
G01*
X146980Y-89900D02*
X145420Y-89900D01*
X145420Y-89900D02*
X145420Y-93700D01*
X145420Y-93700D02*
X146980Y-93700D01*
X146980Y-93700D02*
X146980Y-89900D01*
X146980Y-96050D02*
X147410Y-96050D01*
X146980Y-96550D02*
X147410Y-96550D01*
X146980Y-97050D02*
X147410Y-97050D01*
X146980Y-95550D02*
X147410Y-95550D01*
X147410Y-95050D02*
X146980Y-95050D01*
X147410Y-97550D02*
X146980Y-97550D01*
X147410Y-98050D02*
X146980Y-98050D01*
X147410Y-98550D02*
X146980Y-98550D01*
X145420Y-98550D02*
X144990Y-98550D01*
X145420Y-98050D02*
X144990Y-98050D01*
X145420Y-97550D02*
X144990Y-97550D01*
X145420Y-95050D02*
X144990Y-95050D01*
X144990Y-95550D02*
X145420Y-95550D01*
X144990Y-97050D02*
X145420Y-97050D01*
X144990Y-96550D02*
X145420Y-96550D01*
X144990Y-96050D02*
X145420Y-96050D01*
X145896Y-95200D02*
G75*
G03X145896Y-95200I-186J0D01*
G74*
G01*
X146980Y-94900D02*
X145420Y-94900D01*
X145420Y-94900D02*
X145420Y-98700D01*
X145420Y-98700D02*
X146980Y-98700D01*
X146980Y-98700D02*
X146980Y-94900D01*
G54D13*
X150550Y-97150D02*
G75*
G03X150550Y-97150I-50J0D01*
G74*
G01*
X150500Y-97600D02*
X150500Y-97200D01*
X150500Y-97200D02*
X151100Y-97200D01*
X151100Y-97200D02*
X151100Y-97600D01*
X151100Y-98000D02*
X151100Y-98400D01*
X151100Y-98400D02*
X150500Y-98400D01*
X150500Y-98400D02*
X150500Y-98000D01*
X148100Y-98700D02*
G75*
G03X148100Y-98700I-50J0D01*
G74*
G01*
X148500Y-98700D02*
X148100Y-98700D01*
X148100Y-98700D02*
X148100Y-98100D01*
X148100Y-98100D02*
X148500Y-98100D01*
X148900Y-98100D02*
X149300Y-98100D01*
X149300Y-98100D02*
X149300Y-98700D01*
X149300Y-98700D02*
X148900Y-98700D01*
X148100Y-97500D02*
G75*
G03X148100Y-97500I-50J0D01*
G74*
G01*
X148500Y-97500D02*
X148100Y-97500D01*
X148100Y-97500D02*
X148100Y-96900D01*
X148100Y-96900D02*
X148500Y-96900D01*
X148900Y-96900D02*
X149300Y-96900D01*
X149300Y-96900D02*
X149300Y-97500D01*
X149300Y-97500D02*
X148900Y-97500D01*
X148100Y-96400D02*
G75*
G03X148100Y-96400I-50J0D01*
G74*
G01*
X148500Y-96400D02*
X148100Y-96400D01*
X148100Y-96400D02*
X148100Y-95800D01*
X148100Y-95800D02*
X148500Y-95800D01*
X148900Y-95800D02*
X149300Y-95800D01*
X149300Y-95800D02*
X149300Y-96400D01*
X149300Y-96400D02*
X148900Y-96400D01*
X148100Y-95300D02*
G75*
G03X148100Y-95300I-50J0D01*
G74*
G01*
X148500Y-95300D02*
X148100Y-95300D01*
X148100Y-95300D02*
X148100Y-94700D01*
X148100Y-94700D02*
X148500Y-94700D01*
X148900Y-94700D02*
X149300Y-94700D01*
X149300Y-94700D02*
X149300Y-95300D01*
X149300Y-95300D02*
X148900Y-95300D01*
X148100Y-93800D02*
G75*
G03X148100Y-93800I-50J0D01*
G74*
G01*
X148500Y-93800D02*
X148100Y-93800D01*
X148100Y-93800D02*
X148100Y-93200D01*
X148100Y-93200D02*
X148500Y-93200D01*
X148900Y-93200D02*
X149300Y-93200D01*
X149300Y-93200D02*
X149300Y-93800D01*
X149300Y-93800D02*
X148900Y-93800D01*
X148100Y-92600D02*
G75*
G03X148100Y-92600I-50J0D01*
G74*
G01*
X148500Y-92600D02*
X148100Y-92600D01*
X148100Y-92600D02*
X148100Y-92000D01*
X148100Y-92000D02*
X148500Y-92000D01*
X148900Y-92000D02*
X149300Y-92000D01*
X149300Y-92000D02*
X149300Y-92600D01*
X149300Y-92600D02*
X148900Y-92600D01*
X148100Y-91400D02*
G75*
G03X148100Y-91400I-50J0D01*
G74*
G01*
X148500Y-91400D02*
X148100Y-91400D01*
X148100Y-91400D02*
X148100Y-90800D01*
X148100Y-90800D02*
X148500Y-90800D01*
X148900Y-90800D02*
X149300Y-90800D01*
X149300Y-90800D02*
X149300Y-91400D01*
X149300Y-91400D02*
X148900Y-91400D01*
X148100Y-90100D02*
G75*
G03X148100Y-90100I-50J0D01*
G74*
G01*
X148500Y-90100D02*
X148100Y-90100D01*
X148100Y-90100D02*
X148100Y-89500D01*
X148100Y-89500D02*
X148500Y-89500D01*
X148900Y-89500D02*
X149300Y-89500D01*
X149300Y-89500D02*
X149300Y-90100D01*
X149300Y-90100D02*
X148900Y-90100D01*
X150550Y-98650D02*
G75*
G03X150550Y-98650I-50J0D01*
G74*
G01*
X150500Y-99100D02*
X150500Y-98700D01*
X150500Y-98700D02*
X151100Y-98700D01*
X151100Y-98700D02*
X151100Y-99100D01*
X151100Y-99500D02*
X151100Y-99900D01*
X151100Y-99900D02*
X150500Y-99900D01*
X150500Y-99900D02*
X150500Y-99500D01*
X150550Y-95650D02*
G75*
G03X150550Y-95650I-50J0D01*
G74*
G01*
X150500Y-96100D02*
X150500Y-95700D01*
X150500Y-95700D02*
X151100Y-95700D01*
X151100Y-95700D02*
X151100Y-96100D01*
X151100Y-96500D02*
X151100Y-96900D01*
X151100Y-96900D02*
X150500Y-96900D01*
X150500Y-96900D02*
X150500Y-96500D01*
X150550Y-94150D02*
G75*
G03X150550Y-94150I-50J0D01*
G74*
G01*
X150500Y-94600D02*
X150500Y-94200D01*
X150500Y-94200D02*
X151100Y-94200D01*
X151100Y-94200D02*
X151100Y-94600D01*
X151100Y-95000D02*
X151100Y-95400D01*
X151100Y-95400D02*
X150500Y-95400D01*
X150500Y-95400D02*
X150500Y-95000D01*
X150550Y-92650D02*
G75*
G03X150550Y-92650I-50J0D01*
G74*
G01*
X150500Y-93100D02*
X150500Y-92700D01*
X150500Y-92700D02*
X151100Y-92700D01*
X151100Y-92700D02*
X151100Y-93100D01*
X151100Y-93500D02*
X151100Y-93900D01*
X151100Y-93900D02*
X150500Y-93900D01*
X150500Y-93900D02*
X150500Y-93500D01*
X150550Y-91050D02*
G75*
G03X150550Y-91050I-50J0D01*
G74*
G01*
X150500Y-91500D02*
X150500Y-91100D01*
X150500Y-91100D02*
X151100Y-91100D01*
X151100Y-91100D02*
X151100Y-91500D01*
X151100Y-91900D02*
X151100Y-92300D01*
X151100Y-92300D02*
X150500Y-92300D01*
X150500Y-92300D02*
X150500Y-91900D01*
X150550Y-89550D02*
G75*
G03X150550Y-89550I-50J0D01*
G74*
G01*
X150500Y-90000D02*
X150500Y-89600D01*
X150500Y-89600D02*
X151100Y-89600D01*
X151100Y-89600D02*
X151100Y-90000D01*
X151100Y-90400D02*
X151100Y-90800D01*
X151100Y-90800D02*
X150500Y-90800D01*
X150500Y-90800D02*
X150500Y-90400D01*
X150550Y-88050D02*
G75*
G03X150550Y-88050I-50J0D01*
G74*
G01*
X150500Y-88500D02*
X150500Y-88100D01*
X150500Y-88100D02*
X151100Y-88100D01*
X151100Y-88100D02*
X151100Y-88500D01*
X151100Y-88900D02*
X151100Y-89300D01*
X151100Y-89300D02*
X150500Y-89300D01*
X150500Y-89300D02*
X150500Y-88900D01*
G54D14*
X146100Y-100200D02*
X146100Y-99200D01*
X146100Y-99200D02*
X148100Y-99200D01*
X148100Y-99200D02*
X148100Y-100200D01*
X148100Y-100200D02*
X146100Y-100200D01*
X144500Y-87300D02*
X149500Y-87300D01*
X149500Y-87300D02*
X149500Y-89300D01*
X149500Y-89300D02*
X144500Y-89300D01*
X144500Y-89300D02*
X144500Y-87300D01*
G54D15*
X145975Y-89524D02*
X145975Y-89763D01*
X145989Y-89791D01*
X146003Y-89805D01*
X146031Y-89819D01*
X146087Y-89819D01*
X146115Y-89805D01*
X146129Y-89791D01*
X146143Y-89763D01*
X146143Y-89524D01*
X146438Y-89819D02*
X146270Y-89819D01*
X146354Y-89819D02*
X146354Y-89524D01*
X146326Y-89566D01*
X146298Y-89594D01*
X146270Y-89608D01*
X145919Y-93057D02*
X145624Y-93057D01*
X145835Y-92958D01*
X145624Y-92860D01*
X145919Y-92860D01*
X145919Y-92720D02*
X145624Y-92720D01*
X145835Y-92621D01*
X145624Y-92523D01*
X145919Y-92523D01*
X145919Y-92382D02*
X145624Y-92382D01*
X145624Y-92270D01*
X145638Y-92242D01*
X145652Y-92228D01*
X145680Y-92214D01*
X145722Y-92214D01*
X145750Y-92228D01*
X145764Y-92242D01*
X145778Y-92270D01*
X145778Y-92382D01*
X145947Y-91891D02*
X145933Y-91919D01*
X145905Y-91947D01*
X145863Y-91989D01*
X145849Y-92017D01*
X145849Y-92045D01*
X145919Y-92031D02*
X145905Y-92059D01*
X145877Y-92087D01*
X145821Y-92102D01*
X145722Y-92102D01*
X145666Y-92087D01*
X145638Y-92059D01*
X145624Y-92031D01*
X145624Y-91975D01*
X145638Y-91947D01*
X145666Y-91919D01*
X145722Y-91905D01*
X145821Y-91905D01*
X145877Y-91919D01*
X145905Y-91947D01*
X145919Y-91975D01*
X145919Y-92031D01*
X145652Y-91792D02*
X145638Y-91778D01*
X145624Y-91750D01*
X145624Y-91680D01*
X145638Y-91652D01*
X145652Y-91638D01*
X145680Y-91624D01*
X145708Y-91624D01*
X145750Y-91638D01*
X145919Y-91807D01*
X145919Y-91624D01*
X145652Y-91512D02*
X145638Y-91497D01*
X145624Y-91469D01*
X145624Y-91399D01*
X145638Y-91371D01*
X145652Y-91357D01*
X145680Y-91343D01*
X145708Y-91343D01*
X145750Y-91357D01*
X145919Y-91526D01*
X145919Y-91343D01*
X145652Y-91231D02*
X145638Y-91217D01*
X145624Y-91188D01*
X145624Y-91118D01*
X145638Y-91090D01*
X145652Y-91076D01*
X145680Y-91062D01*
X145708Y-91062D01*
X145750Y-91076D01*
X145919Y-91245D01*
X145919Y-91062D01*
X145652Y-90950D02*
X145638Y-90936D01*
X145624Y-90907D01*
X145624Y-90837D01*
X145638Y-90809D01*
X145652Y-90795D01*
X145680Y-90781D01*
X145708Y-90781D01*
X145750Y-90795D01*
X145919Y-90964D01*
X145919Y-90781D01*
X145835Y-90669D02*
X145835Y-90528D01*
X145919Y-90697D02*
X145624Y-90598D01*
X145919Y-90500D01*
X145975Y-94524D02*
X145975Y-94763D01*
X145989Y-94791D01*
X146003Y-94805D01*
X146031Y-94819D01*
X146087Y-94819D01*
X146115Y-94805D01*
X146129Y-94791D01*
X146143Y-94763D01*
X146143Y-94524D01*
X146270Y-94552D02*
X146284Y-94538D01*
X146312Y-94524D01*
X146382Y-94524D01*
X146410Y-94538D01*
X146424Y-94552D01*
X146438Y-94580D01*
X146438Y-94608D01*
X146424Y-94650D01*
X146256Y-94819D01*
X146438Y-94819D01*
X145919Y-98057D02*
X145624Y-98057D01*
X145835Y-97958D01*
X145624Y-97860D01*
X145919Y-97860D01*
X145919Y-97720D02*
X145624Y-97720D01*
X145835Y-97621D01*
X145624Y-97523D01*
X145919Y-97523D01*
X145919Y-97382D02*
X145624Y-97382D01*
X145624Y-97270D01*
X145638Y-97242D01*
X145652Y-97228D01*
X145680Y-97214D01*
X145722Y-97214D01*
X145750Y-97228D01*
X145764Y-97242D01*
X145778Y-97270D01*
X145778Y-97382D01*
X145947Y-96891D02*
X145933Y-96919D01*
X145905Y-96947D01*
X145863Y-96989D01*
X145849Y-97017D01*
X145849Y-97045D01*
X145919Y-97031D02*
X145905Y-97059D01*
X145877Y-97087D01*
X145821Y-97102D01*
X145722Y-97102D01*
X145666Y-97087D01*
X145638Y-97059D01*
X145624Y-97031D01*
X145624Y-96975D01*
X145638Y-96947D01*
X145666Y-96919D01*
X145722Y-96905D01*
X145821Y-96905D01*
X145877Y-96919D01*
X145905Y-96947D01*
X145919Y-96975D01*
X145919Y-97031D01*
X145652Y-96792D02*
X145638Y-96778D01*
X145624Y-96750D01*
X145624Y-96680D01*
X145638Y-96652D01*
X145652Y-96638D01*
X145680Y-96624D01*
X145708Y-96624D01*
X145750Y-96638D01*
X145919Y-96807D01*
X145919Y-96624D01*
X145652Y-96512D02*
X145638Y-96497D01*
X145624Y-96469D01*
X145624Y-96399D01*
X145638Y-96371D01*
X145652Y-96357D01*
X145680Y-96343D01*
X145708Y-96343D01*
X145750Y-96357D01*
X145919Y-96526D01*
X145919Y-96343D01*
X145652Y-96231D02*
X145638Y-96217D01*
X145624Y-96188D01*
X145624Y-96118D01*
X145638Y-96090D01*
X145652Y-96076D01*
X145680Y-96062D01*
X145708Y-96062D01*
X145750Y-96076D01*
X145919Y-96245D01*
X145919Y-96062D01*
X145652Y-95950D02*
X145638Y-95936D01*
X145624Y-95907D01*
X145624Y-95837D01*
X145638Y-95809D01*
X145652Y-95795D01*
X145680Y-95781D01*
X145708Y-95781D01*
X145750Y-95795D01*
X145919Y-95964D01*
X145919Y-95781D01*
X145835Y-95669D02*
X145835Y-95528D01*
X145919Y-95697D02*
X145624Y-95598D01*
X145919Y-95500D01*
G54D16*
X151419Y-97802D02*
X151325Y-97868D01*
X151419Y-97915D02*
X151222Y-97915D01*
X151222Y-97840D01*
X151232Y-97821D01*
X151241Y-97812D01*
X151260Y-97802D01*
X151288Y-97802D01*
X151307Y-97812D01*
X151316Y-97821D01*
X151325Y-97840D01*
X151325Y-97915D01*
X151222Y-97737D02*
X151222Y-97605D01*
X151419Y-97690D01*
X148503Y-98009D02*
X148437Y-97915D01*
X148390Y-98009D02*
X148390Y-97812D01*
X148465Y-97812D01*
X148484Y-97822D01*
X148493Y-97831D01*
X148503Y-97850D01*
X148503Y-97878D01*
X148493Y-97897D01*
X148484Y-97906D01*
X148465Y-97915D01*
X148390Y-97915D01*
X148690Y-98009D02*
X148578Y-98009D01*
X148634Y-98009D02*
X148634Y-97812D01*
X148615Y-97840D01*
X148597Y-97859D01*
X148578Y-97869D01*
X148859Y-97812D02*
X148822Y-97812D01*
X148803Y-97822D01*
X148794Y-97831D01*
X148775Y-97859D01*
X148766Y-97897D01*
X148766Y-97972D01*
X148775Y-97990D01*
X148784Y-98000D01*
X148803Y-98009D01*
X148841Y-98009D01*
X148859Y-98000D01*
X148869Y-97990D01*
X148878Y-97972D01*
X148878Y-97925D01*
X148869Y-97906D01*
X148859Y-97897D01*
X148841Y-97887D01*
X148803Y-97887D01*
X148784Y-97897D01*
X148775Y-97906D01*
X148766Y-97925D01*
X148533Y-96799D02*
X148467Y-96705D01*
X148420Y-96799D02*
X148420Y-96602D01*
X148495Y-96602D01*
X148514Y-96612D01*
X148523Y-96621D01*
X148533Y-96640D01*
X148533Y-96668D01*
X148523Y-96687D01*
X148514Y-96696D01*
X148495Y-96705D01*
X148420Y-96705D01*
X148720Y-96799D02*
X148608Y-96799D01*
X148664Y-96799D02*
X148664Y-96602D01*
X148645Y-96630D01*
X148627Y-96649D01*
X148608Y-96659D01*
X148899Y-96602D02*
X148805Y-96602D01*
X148796Y-96696D01*
X148805Y-96687D01*
X148824Y-96677D01*
X148871Y-96677D01*
X148889Y-96687D01*
X148899Y-96696D01*
X148908Y-96715D01*
X148908Y-96762D01*
X148899Y-96780D01*
X148889Y-96790D01*
X148871Y-96799D01*
X148824Y-96799D01*
X148805Y-96790D01*
X148796Y-96780D01*
X148543Y-95719D02*
X148477Y-95625D01*
X148430Y-95719D02*
X148430Y-95522D01*
X148505Y-95522D01*
X148524Y-95532D01*
X148533Y-95541D01*
X148543Y-95560D01*
X148543Y-95588D01*
X148533Y-95607D01*
X148524Y-95616D01*
X148505Y-95625D01*
X148430Y-95625D01*
X148730Y-95719D02*
X148618Y-95719D01*
X148674Y-95719D02*
X148674Y-95522D01*
X148655Y-95550D01*
X148637Y-95569D01*
X148618Y-95579D01*
X148899Y-95588D02*
X148899Y-95719D01*
X148852Y-95513D02*
X148806Y-95654D01*
X148927Y-95654D01*
X148533Y-94609D02*
X148467Y-94515D01*
X148420Y-94609D02*
X148420Y-94412D01*
X148495Y-94412D01*
X148514Y-94422D01*
X148523Y-94431D01*
X148533Y-94450D01*
X148533Y-94478D01*
X148523Y-94497D01*
X148514Y-94506D01*
X148495Y-94515D01*
X148420Y-94515D01*
X148720Y-94609D02*
X148608Y-94609D01*
X148664Y-94609D02*
X148664Y-94412D01*
X148645Y-94440D01*
X148627Y-94459D01*
X148608Y-94469D01*
X148786Y-94412D02*
X148908Y-94412D01*
X148842Y-94487D01*
X148871Y-94487D01*
X148889Y-94497D01*
X148899Y-94506D01*
X148908Y-94525D01*
X148908Y-94572D01*
X148899Y-94590D01*
X148889Y-94600D01*
X148871Y-94609D01*
X148814Y-94609D01*
X148796Y-94600D01*
X148786Y-94590D01*
X148473Y-93099D02*
X148407Y-93005D01*
X148360Y-93099D02*
X148360Y-92902D01*
X148435Y-92902D01*
X148454Y-92912D01*
X148463Y-92921D01*
X148473Y-92940D01*
X148473Y-92968D01*
X148463Y-92987D01*
X148454Y-92996D01*
X148435Y-93005D01*
X148360Y-93005D01*
X148660Y-93099D02*
X148548Y-93099D01*
X148604Y-93099D02*
X148604Y-92902D01*
X148585Y-92930D01*
X148567Y-92949D01*
X148548Y-92959D01*
X148736Y-92921D02*
X148745Y-92912D01*
X148764Y-92902D01*
X148811Y-92902D01*
X148829Y-92912D01*
X148839Y-92921D01*
X148848Y-92940D01*
X148848Y-92959D01*
X148839Y-92987D01*
X148726Y-93099D01*
X148848Y-93099D01*
X148543Y-91899D02*
X148477Y-91805D01*
X148430Y-91899D02*
X148430Y-91702D01*
X148505Y-91702D01*
X148524Y-91712D01*
X148533Y-91721D01*
X148543Y-91740D01*
X148543Y-91768D01*
X148533Y-91787D01*
X148524Y-91796D01*
X148505Y-91805D01*
X148430Y-91805D01*
X148730Y-91899D02*
X148618Y-91899D01*
X148674Y-91899D02*
X148674Y-91702D01*
X148655Y-91730D01*
X148637Y-91749D01*
X148618Y-91759D01*
X148918Y-91899D02*
X148806Y-91899D01*
X148862Y-91899D02*
X148862Y-91702D01*
X148843Y-91730D01*
X148824Y-91749D01*
X148806Y-91759D01*
X148483Y-90679D02*
X148417Y-90585D01*
X148370Y-90679D02*
X148370Y-90482D01*
X148445Y-90482D01*
X148464Y-90492D01*
X148473Y-90501D01*
X148483Y-90520D01*
X148483Y-90548D01*
X148473Y-90567D01*
X148464Y-90576D01*
X148445Y-90585D01*
X148370Y-90585D01*
X148670Y-90679D02*
X148558Y-90679D01*
X148614Y-90679D02*
X148614Y-90482D01*
X148595Y-90510D01*
X148577Y-90529D01*
X148558Y-90539D01*
X148792Y-90482D02*
X148811Y-90482D01*
X148830Y-90492D01*
X148839Y-90501D01*
X148849Y-90520D01*
X148858Y-90557D01*
X148858Y-90604D01*
X148849Y-90642D01*
X148839Y-90660D01*
X148830Y-90670D01*
X148811Y-90679D01*
X148792Y-90679D01*
X148774Y-90670D01*
X148764Y-90660D01*
X148755Y-90642D01*
X148746Y-90604D01*
X148746Y-90557D01*
X148755Y-90520D01*
X148764Y-90501D01*
X148774Y-90492D01*
X148792Y-90482D01*
X147837Y-89659D02*
X147771Y-89565D01*
X147724Y-89659D02*
X147724Y-89462D01*
X147799Y-89462D01*
X147818Y-89472D01*
X147827Y-89481D01*
X147837Y-89500D01*
X147837Y-89528D01*
X147827Y-89547D01*
X147818Y-89556D01*
X147799Y-89565D01*
X147724Y-89565D01*
X147930Y-89659D02*
X147968Y-89659D01*
X147987Y-89650D01*
X147996Y-89640D01*
X148015Y-89612D01*
X148024Y-89575D01*
X148024Y-89500D01*
X148015Y-89481D01*
X148006Y-89472D01*
X147987Y-89462D01*
X147949Y-89462D01*
X147930Y-89472D01*
X147921Y-89481D01*
X147912Y-89500D01*
X147912Y-89547D01*
X147921Y-89565D01*
X147930Y-89575D01*
X147949Y-89584D01*
X147987Y-89584D01*
X148006Y-89575D01*
X148015Y-89565D01*
X148024Y-89547D01*
X151379Y-99322D02*
X151285Y-99388D01*
X151379Y-99435D02*
X151182Y-99435D01*
X151182Y-99360D01*
X151192Y-99341D01*
X151201Y-99332D01*
X151220Y-99322D01*
X151248Y-99322D01*
X151267Y-99332D01*
X151276Y-99341D01*
X151285Y-99360D01*
X151285Y-99435D01*
X151267Y-99210D02*
X151257Y-99229D01*
X151248Y-99238D01*
X151229Y-99247D01*
X151220Y-99247D01*
X151201Y-99238D01*
X151192Y-99229D01*
X151182Y-99210D01*
X151182Y-99172D01*
X151192Y-99153D01*
X151201Y-99144D01*
X151220Y-99135D01*
X151229Y-99135D01*
X151248Y-99144D01*
X151257Y-99153D01*
X151267Y-99172D01*
X151267Y-99210D01*
X151276Y-99229D01*
X151285Y-99238D01*
X151304Y-99247D01*
X151342Y-99247D01*
X151360Y-99238D01*
X151370Y-99229D01*
X151379Y-99210D01*
X151379Y-99172D01*
X151370Y-99153D01*
X151360Y-99144D01*
X151342Y-99135D01*
X151304Y-99135D01*
X151285Y-99144D01*
X151276Y-99153D01*
X151267Y-99172D01*
X151409Y-96302D02*
X151315Y-96368D01*
X151409Y-96415D02*
X151212Y-96415D01*
X151212Y-96340D01*
X151222Y-96321D01*
X151231Y-96312D01*
X151250Y-96302D01*
X151278Y-96302D01*
X151297Y-96312D01*
X151306Y-96321D01*
X151315Y-96340D01*
X151315Y-96415D01*
X151212Y-96133D02*
X151212Y-96171D01*
X151222Y-96190D01*
X151231Y-96199D01*
X151259Y-96218D01*
X151297Y-96227D01*
X151372Y-96227D01*
X151390Y-96218D01*
X151400Y-96209D01*
X151409Y-96190D01*
X151409Y-96152D01*
X151400Y-96133D01*
X151390Y-96124D01*
X151372Y-96115D01*
X151325Y-96115D01*
X151306Y-96124D01*
X151297Y-96133D01*
X151287Y-96152D01*
X151287Y-96190D01*
X151297Y-96209D01*
X151306Y-96218D01*
X151325Y-96227D01*
X151399Y-94832D02*
X151305Y-94898D01*
X151399Y-94945D02*
X151202Y-94945D01*
X151202Y-94870D01*
X151212Y-94851D01*
X151221Y-94842D01*
X151240Y-94832D01*
X151268Y-94832D01*
X151287Y-94842D01*
X151296Y-94851D01*
X151305Y-94870D01*
X151305Y-94945D01*
X151202Y-94654D02*
X151202Y-94748D01*
X151296Y-94757D01*
X151287Y-94748D01*
X151277Y-94729D01*
X151277Y-94682D01*
X151287Y-94663D01*
X151296Y-94654D01*
X151315Y-94645D01*
X151362Y-94645D01*
X151380Y-94654D01*
X151390Y-94663D01*
X151399Y-94682D01*
X151399Y-94729D01*
X151390Y-94748D01*
X151380Y-94757D01*
X151399Y-93322D02*
X151305Y-93388D01*
X151399Y-93435D02*
X151202Y-93435D01*
X151202Y-93360D01*
X151212Y-93341D01*
X151221Y-93332D01*
X151240Y-93322D01*
X151268Y-93322D01*
X151287Y-93332D01*
X151296Y-93341D01*
X151305Y-93360D01*
X151305Y-93435D01*
X151268Y-93153D02*
X151399Y-93153D01*
X151193Y-93200D02*
X151334Y-93247D01*
X151334Y-93125D01*
X151389Y-91732D02*
X151295Y-91798D01*
X151389Y-91845D02*
X151192Y-91845D01*
X151192Y-91770D01*
X151202Y-91751D01*
X151211Y-91742D01*
X151230Y-91732D01*
X151258Y-91732D01*
X151277Y-91742D01*
X151286Y-91751D01*
X151295Y-91770D01*
X151295Y-91845D01*
X151192Y-91667D02*
X151192Y-91545D01*
X151267Y-91610D01*
X151267Y-91582D01*
X151277Y-91563D01*
X151286Y-91554D01*
X151305Y-91545D01*
X151352Y-91545D01*
X151370Y-91554D01*
X151380Y-91563D01*
X151389Y-91582D01*
X151389Y-91639D01*
X151380Y-91657D01*
X151370Y-91667D01*
X151409Y-90222D02*
X151315Y-90288D01*
X151409Y-90335D02*
X151212Y-90335D01*
X151212Y-90260D01*
X151222Y-90241D01*
X151231Y-90232D01*
X151250Y-90222D01*
X151278Y-90222D01*
X151297Y-90232D01*
X151306Y-90241D01*
X151315Y-90260D01*
X151315Y-90335D01*
X151231Y-90147D02*
X151222Y-90138D01*
X151212Y-90119D01*
X151212Y-90072D01*
X151222Y-90053D01*
X151231Y-90044D01*
X151250Y-90035D01*
X151269Y-90035D01*
X151297Y-90044D01*
X151409Y-90157D01*
X151409Y-90035D01*
X151399Y-88732D02*
X151305Y-88798D01*
X151399Y-88845D02*
X151202Y-88845D01*
X151202Y-88770D01*
X151212Y-88751D01*
X151221Y-88742D01*
X151240Y-88732D01*
X151268Y-88732D01*
X151287Y-88742D01*
X151296Y-88751D01*
X151305Y-88770D01*
X151305Y-88845D01*
X151399Y-88545D02*
X151399Y-88657D01*
X151399Y-88601D02*
X151202Y-88601D01*
X151230Y-88620D01*
X151249Y-88639D01*
X151259Y-88657D01*
M02*
