M48
;DRILL file {Pcbnew (2013-07-07 BZR 4022)-stable} date 11/1/2014 8:09:38 PM
;FORMAT={-:-/ absolute / inch / decimal}
FMAT,2
INCH,TZ
T1C0.025
T2C0.032
T3C0.040
%
G90
G05
M72
T1
X14.439Y-9.363
X14.443Y-9.466
X14.499Y-9.458
X14.556Y-8.829
X14.568Y-9.167
X14.569Y-9.699
X14.574Y-9.297
X14.604Y-9.666
X14.6085Y-9.504
X14.61Y-9.7395
X14.638Y-8.937
X14.643Y-9.296
X14.65Y-9.8
X14.67Y-9.36
X14.674Y-9.701
X14.774Y-9.454
X14.78Y-9.71
X14.78Y-9.91
X14.783Y-9.599
X14.8Y-9.17
X14.828Y-9.417
X14.909Y-9.419
X14.91Y-9.055
X14.91Y-9.29
X14.91Y-9.78
X14.913Y-9.661
X14.94Y-9.458
X14.943Y-8.947
X15.042Y-9.541
X15.12Y-9.25
T2
X14.66Y-9.97
X14.76Y-9.97
T3
X14.39Y-8.8
X14.39Y-8.9
X14.39Y-9.
X14.39Y-9.1
X14.39Y-9.2
X14.39Y-9.3
X14.39Y-9.4
X14.39Y-9.5
X14.39Y-9.6
X14.39Y-9.7
X14.39Y-9.8
X14.39Y-9.9
X14.5Y-8.78
X14.5Y-8.88
X14.6Y-8.78
X14.6Y-8.88
X14.7Y-8.78
X14.7Y-8.88
X14.8Y-8.78
X14.8Y-8.88
X14.9Y-8.78
X14.9Y-8.88
X14.99Y-8.8
X14.99Y-8.9
X14.99Y-9.
X14.99Y-9.1
X14.99Y-9.2
X14.99Y-9.3
X14.99Y-9.4
X14.99Y-9.5
X14.99Y-9.6
X14.99Y-9.7
X14.99Y-9.8
X14.99Y-9.9
T0
M30
