G04 (created by PCBNEW (2013-07-07 BZR 4022)-stable) date 11/1/2014 8:09:35 PM*
%MOIN*%
G04 Gerber Fmt 3.4, Leading zero omitted, Abs format*
%FSLAX34Y34*%
G01*
G70*
G90*
G04 APERTURE LIST*
%ADD10C,0.00590551*%
%ADD11C,0.011811*%
G04 APERTURE END LIST*
G54D10*
G54D11*
X150598Y-87298D02*
X150598Y-87635D01*
X151189Y-87466D02*
X150598Y-87466D01*
X151189Y-87832D02*
X150795Y-87832D01*
X150907Y-87832D02*
X150851Y-87860D01*
X150823Y-87888D01*
X150795Y-87944D01*
X150795Y-88001D01*
X151189Y-88451D02*
X150879Y-88451D01*
X150823Y-88422D01*
X150795Y-88366D01*
X150795Y-88254D01*
X150823Y-88198D01*
X151160Y-88451D02*
X151189Y-88394D01*
X151189Y-88254D01*
X151160Y-88198D01*
X151104Y-88169D01*
X151048Y-88169D01*
X150992Y-88198D01*
X150964Y-88254D01*
X150964Y-88394D01*
X150935Y-88451D01*
X150795Y-88732D02*
X151189Y-88732D01*
X150851Y-88732D02*
X150823Y-88760D01*
X150795Y-88816D01*
X150795Y-88901D01*
X150823Y-88957D01*
X150879Y-88985D01*
X151189Y-88985D01*
X151160Y-89238D02*
X151189Y-89294D01*
X151189Y-89407D01*
X151160Y-89463D01*
X151104Y-89491D01*
X151076Y-89491D01*
X151020Y-89463D01*
X150992Y-89407D01*
X150992Y-89322D01*
X150964Y-89266D01*
X150907Y-89238D01*
X150879Y-89238D01*
X150823Y-89266D01*
X150795Y-89322D01*
X150795Y-89407D01*
X150823Y-89463D01*
X151189Y-89744D02*
X150795Y-89744D01*
X150598Y-89744D02*
X150626Y-89716D01*
X150654Y-89744D01*
X150626Y-89772D01*
X150598Y-89744D01*
X150654Y-89744D01*
X151160Y-89997D02*
X151189Y-90054D01*
X151189Y-90166D01*
X151160Y-90222D01*
X151104Y-90250D01*
X151076Y-90250D01*
X151020Y-90222D01*
X150992Y-90166D01*
X150992Y-90082D01*
X150964Y-90025D01*
X150907Y-89997D01*
X150879Y-89997D01*
X150823Y-90025D01*
X150795Y-90082D01*
X150795Y-90166D01*
X150823Y-90222D01*
X150795Y-90419D02*
X150795Y-90644D01*
X150598Y-90503D02*
X151104Y-90503D01*
X151160Y-90532D01*
X151189Y-90588D01*
X151189Y-90644D01*
X151189Y-90925D02*
X151160Y-90869D01*
X151132Y-90841D01*
X151076Y-90813D01*
X150907Y-90813D01*
X150851Y-90841D01*
X150823Y-90869D01*
X150795Y-90925D01*
X150795Y-91010D01*
X150823Y-91066D01*
X150851Y-91094D01*
X150907Y-91122D01*
X151076Y-91122D01*
X151132Y-91094D01*
X151160Y-91066D01*
X151189Y-91010D01*
X151189Y-90925D01*
X151189Y-91375D02*
X150795Y-91375D01*
X150907Y-91375D02*
X150851Y-91403D01*
X150823Y-91431D01*
X150795Y-91488D01*
X150795Y-91544D01*
X151160Y-92163D02*
X151189Y-92219D01*
X151189Y-92331D01*
X151160Y-92388D01*
X151104Y-92416D01*
X151076Y-92416D01*
X151020Y-92388D01*
X150992Y-92331D01*
X150992Y-92247D01*
X150964Y-92191D01*
X150907Y-92163D01*
X150879Y-92163D01*
X150823Y-92191D01*
X150795Y-92247D01*
X150795Y-92331D01*
X150823Y-92388D01*
X151189Y-92669D02*
X150598Y-92669D01*
X151189Y-92922D02*
X150879Y-92922D01*
X150823Y-92894D01*
X150795Y-92838D01*
X150795Y-92753D01*
X150823Y-92697D01*
X150851Y-92669D01*
X151189Y-93203D02*
X150795Y-93203D01*
X150598Y-93203D02*
X150626Y-93175D01*
X150654Y-93203D01*
X150626Y-93231D01*
X150598Y-93203D01*
X150654Y-93203D01*
X151160Y-93709D02*
X151189Y-93653D01*
X151189Y-93541D01*
X151160Y-93484D01*
X151104Y-93456D01*
X150879Y-93456D01*
X150823Y-93484D01*
X150795Y-93541D01*
X150795Y-93653D01*
X150823Y-93709D01*
X150879Y-93737D01*
X150935Y-93737D01*
X150992Y-93456D01*
X151189Y-94075D02*
X151160Y-94019D01*
X151104Y-93991D01*
X150598Y-93991D01*
X151189Y-94553D02*
X150598Y-94553D01*
X151160Y-94553D02*
X151189Y-94497D01*
X151189Y-94384D01*
X151160Y-94328D01*
X151132Y-94300D01*
X151076Y-94272D01*
X150907Y-94272D01*
X150851Y-94300D01*
X150823Y-94328D01*
X150795Y-94384D01*
X150795Y-94497D01*
X150823Y-94553D01*
X151189Y-95284D02*
X150795Y-95284D01*
X150907Y-95284D02*
X150851Y-95312D01*
X150823Y-95340D01*
X150795Y-95397D01*
X150795Y-95453D01*
X151160Y-95875D02*
X151189Y-95818D01*
X151189Y-95706D01*
X151160Y-95650D01*
X151104Y-95622D01*
X150879Y-95622D01*
X150823Y-95650D01*
X150795Y-95706D01*
X150795Y-95818D01*
X150823Y-95875D01*
X150879Y-95903D01*
X150935Y-95903D01*
X150992Y-95622D01*
X150795Y-96100D02*
X151189Y-96240D01*
X150795Y-96381D01*
X150598Y-97168D02*
X150598Y-97225D01*
X150626Y-97281D01*
X150654Y-97309D01*
X150710Y-97337D01*
X150823Y-97365D01*
X150964Y-97365D01*
X151076Y-97337D01*
X151132Y-97309D01*
X151160Y-97281D01*
X151189Y-97225D01*
X151189Y-97168D01*
X151160Y-97112D01*
X151132Y-97084D01*
X151076Y-97056D01*
X150964Y-97028D01*
X150823Y-97028D01*
X150710Y-97056D01*
X150654Y-97084D01*
X150626Y-97112D01*
X150598Y-97168D01*
M02*
