G04 (created by PCBNEW (2013-07-07 BZR 4022)-stable) date 11/1/2014 8:09:35 PM*
%MOIN*%
G04 Gerber Fmt 3.4, Leading zero omitted, Abs format*
%FSLAX34Y34*%
G01*
G70*
G90*
G04 APERTURE LIST*
%ADD10C,0.00590551*%
%ADD11R,0.05X0.025*%
%ADD12R,0.055X0.035*%
%ADD13R,0.035X0.055*%
%ADD14R,0.055X0.055*%
%ADD15C,0.055*%
%ADD16R,0.06X0.06*%
%ADD17C,0.06*%
%ADD18C,0.0590551*%
%ADD19C,0.035*%
%ADD20C,0.01*%
G04 APERTURE END LIST*
G54D10*
G54D11*
X145100Y-90050D03*
X145100Y-90550D03*
X145100Y-91050D03*
X145100Y-91550D03*
X145100Y-92050D03*
X145100Y-92550D03*
X145100Y-93050D03*
X145100Y-93550D03*
X147300Y-93550D03*
X147300Y-93050D03*
X147300Y-92550D03*
X147300Y-92050D03*
X147300Y-91550D03*
X147300Y-91050D03*
X147300Y-90550D03*
X147300Y-90050D03*
X145100Y-95050D03*
X145100Y-95550D03*
X145100Y-96050D03*
X145100Y-96550D03*
X145100Y-97050D03*
X145100Y-97550D03*
X145100Y-98050D03*
X145100Y-98550D03*
X147300Y-98550D03*
X147300Y-98050D03*
X147300Y-97550D03*
X147300Y-97050D03*
X147300Y-96550D03*
X147300Y-96050D03*
X147300Y-95550D03*
X147300Y-95050D03*
G54D12*
X150800Y-97425D03*
X150800Y-98175D03*
G54D13*
X148325Y-98400D03*
X149075Y-98400D03*
X148325Y-97200D03*
X149075Y-97200D03*
X148325Y-96100D03*
X149075Y-96100D03*
X148325Y-95000D03*
X149075Y-95000D03*
X148325Y-93500D03*
X149075Y-93500D03*
X148325Y-92300D03*
X149075Y-92300D03*
X148325Y-91100D03*
X149075Y-91100D03*
X148325Y-89800D03*
X149075Y-89800D03*
G54D12*
X150800Y-98925D03*
X150800Y-99675D03*
X150800Y-95925D03*
X150800Y-96675D03*
X150800Y-94425D03*
X150800Y-95175D03*
X150800Y-92925D03*
X150800Y-93675D03*
X150800Y-91325D03*
X150800Y-92075D03*
X150800Y-89825D03*
X150800Y-90575D03*
X150800Y-88325D03*
X150800Y-89075D03*
G54D14*
X146600Y-99700D03*
G54D15*
X147600Y-99700D03*
G54D16*
X145000Y-88800D03*
G54D17*
X145000Y-87800D03*
X146000Y-88800D03*
X146000Y-87800D03*
X147000Y-88800D03*
X147000Y-87800D03*
X148000Y-88800D03*
X148000Y-87800D03*
X149000Y-88800D03*
X149000Y-87800D03*
G54D18*
X149900Y-88000D03*
X149900Y-99000D03*
X149900Y-98000D03*
X149900Y-97000D03*
X149900Y-96000D03*
X149900Y-95000D03*
X149900Y-94000D03*
X149900Y-93000D03*
X149900Y-92000D03*
X149900Y-91000D03*
X149900Y-90000D03*
X149900Y-89000D03*
X143900Y-89000D03*
X143900Y-90000D03*
X143900Y-91000D03*
X143900Y-92000D03*
X143900Y-93000D03*
X143900Y-94000D03*
X143900Y-95000D03*
X143900Y-96000D03*
X143900Y-97000D03*
X143900Y-98000D03*
X143900Y-99000D03*
X143900Y-88000D03*
G54D19*
X149430Y-89470D03*
X146380Y-89370D03*
X145680Y-91670D03*
X149100Y-90550D03*
X146430Y-92960D03*
X145740Y-92970D03*
X149100Y-92900D03*
X146700Y-93600D03*
X149090Y-94190D03*
X148280Y-94170D03*
X149400Y-94580D03*
X147740Y-94540D03*
X144990Y-94580D03*
X149130Y-96610D03*
X146740Y-97010D03*
X145690Y-96990D03*
X149100Y-97800D03*
X147800Y-99100D03*
X150420Y-95410D03*
X147830Y-95990D03*
X147800Y-97100D03*
X146500Y-98000D03*
X148000Y-91700D03*
X151200Y-92500D03*
X144430Y-94660D03*
X144390Y-93630D03*
X146100Y-97395D03*
X146040Y-96660D03*
X146085Y-95040D03*
X145560Y-88290D03*
G54D20*
X149100Y-89800D02*
X149075Y-89800D01*
X149430Y-89470D02*
X149100Y-89800D01*
X146040Y-89710D02*
X146380Y-89370D01*
X146040Y-91310D02*
X146040Y-89710D01*
X145680Y-91670D02*
X146040Y-91310D01*
X150800Y-88325D02*
X150800Y-88200D01*
X148500Y-89225D02*
X149075Y-89800D01*
X148500Y-87600D02*
X148500Y-89225D01*
X148800Y-87300D02*
X148500Y-87600D01*
X149900Y-87300D02*
X148800Y-87300D01*
X150800Y-88200D02*
X149900Y-87300D01*
X149075Y-90575D02*
X149075Y-91100D01*
X149100Y-90550D02*
X149075Y-90575D01*
X146420Y-92950D02*
X146430Y-92960D01*
X145760Y-92950D02*
X146420Y-92950D01*
X145740Y-92970D02*
X145760Y-92950D01*
X150800Y-89825D02*
X150775Y-89825D01*
X149675Y-90500D02*
X149075Y-91100D01*
X150100Y-90500D02*
X149675Y-90500D01*
X150775Y-89825D02*
X150100Y-90500D01*
X143900Y-94000D02*
X146300Y-94000D01*
X149075Y-92875D02*
X149075Y-92300D01*
X149100Y-92900D02*
X149075Y-92875D01*
X146300Y-94000D02*
X146700Y-93600D01*
X150800Y-91325D02*
X150375Y-91325D01*
X149075Y-92125D02*
X149075Y-92300D01*
X149658Y-91541D02*
X149075Y-92125D01*
X150158Y-91541D02*
X149658Y-91541D01*
X150375Y-91325D02*
X150158Y-91541D01*
X143900Y-95000D02*
X143900Y-94690D01*
X149075Y-94175D02*
X149075Y-93500D01*
X149090Y-94190D02*
X149075Y-94175D01*
X148240Y-94210D02*
X148280Y-94170D01*
X144380Y-94210D02*
X148240Y-94210D01*
X143900Y-94690D02*
X144380Y-94210D01*
X150800Y-92925D02*
X150775Y-92925D01*
X150200Y-93500D02*
X149075Y-93500D01*
X150775Y-92925D02*
X150200Y-93500D01*
X149075Y-94905D02*
X149075Y-95000D01*
X149400Y-94580D02*
X149075Y-94905D01*
X145030Y-94540D02*
X147740Y-94540D01*
X144990Y-94580D02*
X145030Y-94540D01*
X150800Y-94425D02*
X150375Y-94425D01*
X149575Y-94500D02*
X149075Y-95000D01*
X150300Y-94500D02*
X149575Y-94500D01*
X150375Y-94425D02*
X150300Y-94500D01*
X149075Y-96555D02*
X149075Y-96100D01*
X149130Y-96610D02*
X149075Y-96555D01*
X145710Y-97010D02*
X146740Y-97010D01*
X145690Y-96990D02*
X145710Y-97010D01*
X150800Y-95925D02*
X150775Y-95925D01*
X149475Y-96500D02*
X149075Y-96100D01*
X150200Y-96500D02*
X149475Y-96500D01*
X150775Y-95925D02*
X150200Y-96500D01*
X143900Y-98000D02*
X143900Y-98200D01*
X149075Y-97775D02*
X149075Y-97200D01*
X149100Y-97800D02*
X149075Y-97775D01*
X144800Y-99100D02*
X147800Y-99100D01*
X143900Y-98200D02*
X144800Y-99100D01*
X149075Y-97200D02*
X149300Y-97200D01*
X150725Y-97500D02*
X150800Y-97425D01*
X149600Y-97500D02*
X150725Y-97500D01*
X149300Y-97200D02*
X149600Y-97500D01*
X143900Y-99000D02*
X144200Y-99000D01*
X144200Y-99000D02*
X145400Y-100200D01*
X145400Y-100200D02*
X148600Y-100200D01*
X148600Y-100200D02*
X149075Y-99725D01*
X149075Y-99725D02*
X149075Y-98400D01*
X149075Y-98400D02*
X149500Y-98400D01*
X150375Y-98500D02*
X150800Y-98925D01*
X149600Y-98500D02*
X150375Y-98500D01*
X149500Y-98400D02*
X149600Y-98500D01*
X147300Y-90550D02*
X147575Y-90550D01*
X147575Y-90550D02*
X148325Y-89800D01*
X147300Y-91550D02*
X147550Y-91550D01*
X148000Y-91100D02*
X148325Y-91100D01*
X147550Y-91550D02*
X148000Y-91100D01*
X147300Y-92550D02*
X148075Y-92550D01*
X148075Y-92550D02*
X148325Y-92300D01*
X147300Y-93550D02*
X148275Y-93550D01*
X148275Y-93550D02*
X148325Y-93500D01*
X148325Y-95000D02*
X148325Y-95075D01*
X147850Y-95550D02*
X147300Y-95550D01*
X148325Y-95075D02*
X147850Y-95550D01*
X148325Y-96100D02*
X148325Y-96175D01*
X147950Y-96550D02*
X147300Y-96550D01*
X148325Y-96175D02*
X147950Y-96550D01*
X148325Y-97200D02*
X148325Y-97375D01*
X148150Y-97550D02*
X147300Y-97550D01*
X148325Y-97375D02*
X148150Y-97550D01*
X148325Y-98400D02*
X148200Y-98400D01*
X148050Y-98550D02*
X147300Y-98550D01*
X148200Y-98400D02*
X148050Y-98550D01*
X147600Y-99700D02*
X147900Y-99700D01*
X149200Y-91700D02*
X149900Y-91000D01*
X148800Y-91700D02*
X149200Y-91700D01*
X148700Y-91800D02*
X148800Y-91700D01*
X148700Y-98900D02*
X148700Y-91800D01*
X147900Y-99700D02*
X148700Y-98900D01*
X147300Y-92050D02*
X147060Y-92050D01*
X147020Y-93050D02*
X147300Y-93050D01*
X146830Y-92860D02*
X147020Y-93050D01*
X146830Y-92280D02*
X146830Y-92860D01*
X147060Y-92050D02*
X146830Y-92280D01*
X147300Y-91050D02*
X147110Y-91050D01*
X147030Y-92050D02*
X147300Y-92050D01*
X146850Y-91870D02*
X147030Y-92050D01*
X146850Y-91310D02*
X146850Y-91870D01*
X147110Y-91050D02*
X146850Y-91310D01*
X147300Y-90050D02*
X147180Y-90050D01*
X146990Y-91050D02*
X147300Y-91050D01*
X146800Y-90860D02*
X146990Y-91050D01*
X146800Y-90430D02*
X146800Y-90860D01*
X147180Y-90050D02*
X146800Y-90430D01*
X147300Y-96050D02*
X147770Y-96050D01*
X150430Y-95400D02*
X150440Y-95400D01*
X150420Y-95410D02*
X150430Y-95400D01*
X147770Y-96050D02*
X147830Y-95990D01*
X147300Y-98050D02*
X146550Y-98050D01*
X146550Y-98050D02*
X146500Y-98000D01*
X147300Y-92050D02*
X147650Y-92050D01*
X147800Y-91900D02*
X148000Y-91700D01*
X147650Y-92050D02*
X147800Y-91900D01*
X145000Y-88800D02*
X145000Y-89950D01*
X145000Y-89950D02*
X145100Y-90050D01*
X145100Y-90550D02*
X145100Y-90050D01*
X146000Y-88800D02*
X146000Y-89200D01*
X145450Y-91050D02*
X145100Y-91050D01*
X145700Y-90800D02*
X145450Y-91050D01*
X145700Y-89500D02*
X145700Y-90800D01*
X146000Y-89200D02*
X145700Y-89500D01*
X145100Y-91550D02*
X145100Y-91050D01*
X147000Y-88800D02*
X147000Y-89300D01*
X146000Y-92300D02*
X145100Y-92300D01*
X146300Y-92000D02*
X146000Y-92300D01*
X146300Y-90000D02*
X146300Y-92000D01*
X147000Y-89300D02*
X146300Y-90000D01*
X145100Y-92550D02*
X145100Y-92300D01*
X145100Y-92300D02*
X145100Y-92050D01*
X145100Y-93050D02*
X145240Y-93050D01*
X146580Y-90220D02*
X148000Y-88800D01*
X146580Y-92420D02*
X146580Y-90220D01*
X146390Y-92610D02*
X146580Y-92420D01*
X145680Y-92610D02*
X146390Y-92610D01*
X145240Y-93050D02*
X145680Y-92610D01*
X145100Y-93550D02*
X145100Y-93300D01*
X145100Y-93300D02*
X145100Y-93050D01*
X145000Y-87800D02*
X145000Y-87940D01*
X144820Y-95050D02*
X145100Y-95050D01*
X144430Y-94660D02*
X144820Y-95050D01*
X144390Y-88550D02*
X144390Y-93630D01*
X145000Y-87940D02*
X144390Y-88550D01*
X145100Y-95550D02*
X145100Y-95300D01*
X145100Y-95300D02*
X145100Y-95050D01*
X146000Y-87800D02*
X145950Y-87800D01*
X143695Y-96550D02*
X145100Y-96550D01*
X143425Y-96280D02*
X143695Y-96550D01*
X143425Y-87785D02*
X143425Y-96280D01*
X143970Y-87240D02*
X143425Y-87785D01*
X145390Y-87240D02*
X143970Y-87240D01*
X145950Y-87800D02*
X145390Y-87240D01*
X145100Y-96550D02*
X145100Y-96300D01*
X145100Y-96300D02*
X145100Y-96050D01*
X147000Y-87800D02*
X146700Y-87800D01*
X143650Y-97550D02*
X145100Y-97550D01*
X143200Y-97100D02*
X143650Y-97550D01*
X143200Y-87700D02*
X143200Y-97100D01*
X143900Y-87000D02*
X143200Y-87700D01*
X145900Y-87000D02*
X143900Y-87000D01*
X146700Y-87800D02*
X145900Y-87000D01*
X145100Y-97550D02*
X145100Y-97300D01*
X145100Y-97300D02*
X145100Y-97050D01*
X148000Y-87800D02*
X147985Y-87800D01*
X145445Y-98050D02*
X145100Y-98050D01*
X146100Y-97395D02*
X145445Y-98050D01*
X146040Y-95085D02*
X146040Y-96660D01*
X146085Y-95040D02*
X146040Y-95085D01*
X147495Y-88290D02*
X145560Y-88290D01*
X147985Y-87800D02*
X147495Y-88290D01*
X145100Y-98550D02*
X145100Y-98300D01*
X145100Y-98300D02*
X145100Y-98050D01*
G54D10*
G36*
X143976Y-91005D02*
X143905Y-91076D01*
X143900Y-91070D01*
X143894Y-91076D01*
X143823Y-91005D01*
X143829Y-91000D01*
X143823Y-90994D01*
X143894Y-90923D01*
X143900Y-90929D01*
X143905Y-90923D01*
X143976Y-90994D01*
X143970Y-91000D01*
X143976Y-91005D01*
X143976Y-91005D01*
G37*
G54D20*
X143976Y-91005D02*
X143905Y-91076D01*
X143900Y-91070D01*
X143894Y-91076D01*
X143823Y-91005D01*
X143829Y-91000D01*
X143823Y-90994D01*
X143894Y-90923D01*
X143900Y-90929D01*
X143905Y-90923D01*
X143976Y-90994D01*
X143970Y-91000D01*
X143976Y-91005D01*
G54D10*
G36*
X146657Y-99750D02*
X146650Y-99750D01*
X146650Y-99757D01*
X146550Y-99757D01*
X146550Y-99750D01*
X146137Y-99750D01*
X146075Y-99812D01*
X146074Y-99900D01*
X145524Y-99900D01*
X145024Y-99400D01*
X146075Y-99400D01*
X146074Y-99474D01*
X146075Y-99587D01*
X146137Y-99650D01*
X146550Y-99650D01*
X146550Y-99642D01*
X146650Y-99642D01*
X146650Y-99650D01*
X146657Y-99650D01*
X146657Y-99750D01*
X146657Y-99750D01*
G37*
G54D20*
X146657Y-99750D02*
X146650Y-99750D01*
X146650Y-99757D01*
X146550Y-99757D01*
X146550Y-99750D01*
X146137Y-99750D01*
X146075Y-99812D01*
X146074Y-99900D01*
X145524Y-99900D01*
X145024Y-99400D01*
X146075Y-99400D01*
X146074Y-99474D01*
X146075Y-99587D01*
X146137Y-99650D01*
X146550Y-99650D01*
X146550Y-99642D01*
X146650Y-99642D01*
X146650Y-99650D01*
X146657Y-99650D01*
X146657Y-99750D01*
G54D10*
G36*
X147357Y-90100D02*
X147350Y-90100D01*
X147350Y-90107D01*
X147250Y-90107D01*
X147250Y-90100D01*
X147242Y-90100D01*
X147242Y-90000D01*
X147250Y-90000D01*
X147250Y-89992D01*
X147350Y-89992D01*
X147350Y-90000D01*
X147357Y-90000D01*
X147357Y-90100D01*
X147357Y-90100D01*
G37*
G54D20*
X147357Y-90100D02*
X147350Y-90100D01*
X147350Y-90107D01*
X147250Y-90107D01*
X147250Y-90100D01*
X147242Y-90100D01*
X147242Y-90000D01*
X147250Y-90000D01*
X147250Y-89992D01*
X147350Y-89992D01*
X147350Y-90000D01*
X147357Y-90000D01*
X147357Y-90100D01*
G54D10*
G36*
X147357Y-91100D02*
X147350Y-91100D01*
X147350Y-91107D01*
X147250Y-91107D01*
X147250Y-91100D01*
X147242Y-91100D01*
X147242Y-91000D01*
X147250Y-91000D01*
X147250Y-90992D01*
X147350Y-90992D01*
X147350Y-91000D01*
X147357Y-91000D01*
X147357Y-91100D01*
X147357Y-91100D01*
G37*
G54D20*
X147357Y-91100D02*
X147350Y-91100D01*
X147350Y-91107D01*
X147250Y-91107D01*
X147250Y-91100D01*
X147242Y-91100D01*
X147242Y-91000D01*
X147250Y-91000D01*
X147250Y-90992D01*
X147350Y-90992D01*
X147350Y-91000D01*
X147357Y-91000D01*
X147357Y-91100D01*
G54D10*
G36*
X147899Y-95840D02*
X147899Y-95874D01*
X147899Y-96175D01*
X147825Y-96250D01*
X147789Y-96250D01*
X147800Y-96224D01*
X147800Y-96162D01*
X147737Y-96100D01*
X147350Y-96100D01*
X147350Y-96107D01*
X147250Y-96107D01*
X147250Y-96100D01*
X146862Y-96100D01*
X146800Y-96162D01*
X146799Y-96224D01*
X146831Y-96300D01*
X146800Y-96375D01*
X146799Y-96474D01*
X146799Y-96585D01*
X146655Y-96584D01*
X146499Y-96649D01*
X146464Y-96684D01*
X146465Y-96575D01*
X146400Y-96419D01*
X146340Y-96358D01*
X146340Y-95385D01*
X146445Y-95281D01*
X146509Y-95124D01*
X146510Y-94955D01*
X146462Y-94840D01*
X146814Y-94840D01*
X146799Y-94875D01*
X146800Y-94937D01*
X146862Y-95000D01*
X147250Y-95000D01*
X147250Y-94992D01*
X147350Y-94992D01*
X147350Y-95000D01*
X147737Y-95000D01*
X147772Y-94965D01*
X147824Y-94965D01*
X147899Y-94933D01*
X147899Y-95075D01*
X147800Y-95175D01*
X147800Y-95162D01*
X147737Y-95100D01*
X147350Y-95100D01*
X147350Y-95107D01*
X147250Y-95107D01*
X147250Y-95100D01*
X146862Y-95100D01*
X146800Y-95162D01*
X146799Y-95224D01*
X146831Y-95300D01*
X146800Y-95375D01*
X146799Y-95474D01*
X146799Y-95724D01*
X146831Y-95800D01*
X146799Y-95875D01*
X146800Y-95937D01*
X146862Y-96000D01*
X147250Y-96000D01*
X147250Y-95992D01*
X147350Y-95992D01*
X147350Y-96000D01*
X147737Y-96000D01*
X147800Y-95937D01*
X147800Y-95875D01*
X147789Y-95850D01*
X147850Y-95850D01*
X147850Y-95849D01*
X147899Y-95840D01*
X147899Y-95840D01*
G37*
G54D20*
X147899Y-95840D02*
X147899Y-95874D01*
X147899Y-96175D01*
X147825Y-96250D01*
X147789Y-96250D01*
X147800Y-96224D01*
X147800Y-96162D01*
X147737Y-96100D01*
X147350Y-96100D01*
X147350Y-96107D01*
X147250Y-96107D01*
X147250Y-96100D01*
X146862Y-96100D01*
X146800Y-96162D01*
X146799Y-96224D01*
X146831Y-96300D01*
X146800Y-96375D01*
X146799Y-96474D01*
X146799Y-96585D01*
X146655Y-96584D01*
X146499Y-96649D01*
X146464Y-96684D01*
X146465Y-96575D01*
X146400Y-96419D01*
X146340Y-96358D01*
X146340Y-95385D01*
X146445Y-95281D01*
X146509Y-95124D01*
X146510Y-94955D01*
X146462Y-94840D01*
X146814Y-94840D01*
X146799Y-94875D01*
X146800Y-94937D01*
X146862Y-95000D01*
X147250Y-95000D01*
X147250Y-94992D01*
X147350Y-94992D01*
X147350Y-95000D01*
X147737Y-95000D01*
X147772Y-94965D01*
X147824Y-94965D01*
X147899Y-94933D01*
X147899Y-95075D01*
X147800Y-95175D01*
X147800Y-95162D01*
X147737Y-95100D01*
X147350Y-95100D01*
X147350Y-95107D01*
X147250Y-95107D01*
X147250Y-95100D01*
X146862Y-95100D01*
X146800Y-95162D01*
X146799Y-95224D01*
X146831Y-95300D01*
X146800Y-95375D01*
X146799Y-95474D01*
X146799Y-95724D01*
X146831Y-95800D01*
X146799Y-95875D01*
X146800Y-95937D01*
X146862Y-96000D01*
X147250Y-96000D01*
X147250Y-95992D01*
X147350Y-95992D01*
X147350Y-96000D01*
X147737Y-96000D01*
X147800Y-95937D01*
X147800Y-95875D01*
X147789Y-95850D01*
X147850Y-95850D01*
X147850Y-95849D01*
X147899Y-95840D01*
G54D10*
G36*
X147910Y-96850D02*
X147900Y-96875D01*
X147899Y-96974D01*
X147899Y-97250D01*
X147789Y-97250D01*
X147800Y-97224D01*
X147800Y-97162D01*
X147737Y-97100D01*
X147350Y-97100D01*
X147350Y-97107D01*
X147250Y-97107D01*
X147250Y-97100D01*
X147242Y-97100D01*
X147242Y-97000D01*
X147250Y-97000D01*
X147250Y-96992D01*
X147350Y-96992D01*
X147350Y-97000D01*
X147737Y-97000D01*
X147800Y-96937D01*
X147800Y-96875D01*
X147789Y-96850D01*
X147910Y-96850D01*
X147910Y-96850D01*
G37*
G54D20*
X147910Y-96850D02*
X147900Y-96875D01*
X147899Y-96974D01*
X147899Y-97250D01*
X147789Y-97250D01*
X147800Y-97224D01*
X147800Y-97162D01*
X147737Y-97100D01*
X147350Y-97100D01*
X147350Y-97107D01*
X147250Y-97107D01*
X147250Y-97100D01*
X147242Y-97100D01*
X147242Y-97000D01*
X147250Y-97000D01*
X147250Y-96992D01*
X147350Y-96992D01*
X147350Y-97000D01*
X147737Y-97000D01*
X147800Y-96937D01*
X147800Y-96875D01*
X147789Y-96850D01*
X147910Y-96850D01*
G54D10*
G36*
X148400Y-92974D02*
X148100Y-92974D01*
X148008Y-93012D01*
X147938Y-93083D01*
X147900Y-93175D01*
X147899Y-93250D01*
X147789Y-93250D01*
X147800Y-93224D01*
X147800Y-93162D01*
X147737Y-93100D01*
X147350Y-93100D01*
X147350Y-93107D01*
X147250Y-93107D01*
X147250Y-93100D01*
X147242Y-93100D01*
X147242Y-93000D01*
X147250Y-93000D01*
X147250Y-92992D01*
X147350Y-92992D01*
X147350Y-93000D01*
X147737Y-93000D01*
X147800Y-92937D01*
X147800Y-92875D01*
X147789Y-92850D01*
X148075Y-92850D01*
X148075Y-92849D01*
X148189Y-92827D01*
X148189Y-92827D01*
X148192Y-92825D01*
X148192Y-92825D01*
X148199Y-92825D01*
X148400Y-92825D01*
X148400Y-92974D01*
X148400Y-92974D01*
G37*
G54D20*
X148400Y-92974D02*
X148100Y-92974D01*
X148008Y-93012D01*
X147938Y-93083D01*
X147900Y-93175D01*
X147899Y-93250D01*
X147789Y-93250D01*
X147800Y-93224D01*
X147800Y-93162D01*
X147737Y-93100D01*
X147350Y-93100D01*
X147350Y-93107D01*
X147250Y-93107D01*
X147250Y-93100D01*
X147242Y-93100D01*
X147242Y-93000D01*
X147250Y-93000D01*
X147250Y-92992D01*
X147350Y-92992D01*
X147350Y-93000D01*
X147737Y-93000D01*
X147800Y-92937D01*
X147800Y-92875D01*
X147789Y-92850D01*
X148075Y-92850D01*
X148075Y-92849D01*
X148189Y-92827D01*
X148189Y-92827D01*
X148192Y-92825D01*
X148192Y-92825D01*
X148199Y-92825D01*
X148400Y-92825D01*
X148400Y-92974D01*
G54D10*
G36*
X148400Y-97874D02*
X148100Y-97874D01*
X148008Y-97912D01*
X147938Y-97983D01*
X147900Y-98075D01*
X147899Y-98174D01*
X147899Y-98250D01*
X147789Y-98250D01*
X147800Y-98224D01*
X147800Y-98162D01*
X147737Y-98100D01*
X147350Y-98100D01*
X147350Y-98107D01*
X147250Y-98107D01*
X147250Y-98100D01*
X146862Y-98100D01*
X146800Y-98162D01*
X146799Y-98224D01*
X146831Y-98300D01*
X146800Y-98375D01*
X146799Y-98474D01*
X146799Y-98724D01*
X146831Y-98800D01*
X145568Y-98800D01*
X145599Y-98724D01*
X145600Y-98625D01*
X145600Y-98375D01*
X145575Y-98316D01*
X145657Y-98262D01*
X146099Y-97819D01*
X146184Y-97820D01*
X146340Y-97755D01*
X146460Y-97636D01*
X146524Y-97479D01*
X146525Y-97380D01*
X146655Y-97434D01*
X146799Y-97435D01*
X146799Y-97474D01*
X146799Y-97724D01*
X146831Y-97800D01*
X146799Y-97875D01*
X146800Y-97937D01*
X146862Y-98000D01*
X147250Y-98000D01*
X147250Y-97992D01*
X147350Y-97992D01*
X147350Y-98000D01*
X147737Y-98000D01*
X147800Y-97937D01*
X147800Y-97875D01*
X147789Y-97850D01*
X148150Y-97850D01*
X148150Y-97849D01*
X148264Y-97827D01*
X148264Y-97827D01*
X148362Y-97762D01*
X148399Y-97725D01*
X148400Y-97725D01*
X148400Y-97874D01*
X148400Y-97874D01*
G37*
G54D20*
X148400Y-97874D02*
X148100Y-97874D01*
X148008Y-97912D01*
X147938Y-97983D01*
X147900Y-98075D01*
X147899Y-98174D01*
X147899Y-98250D01*
X147789Y-98250D01*
X147800Y-98224D01*
X147800Y-98162D01*
X147737Y-98100D01*
X147350Y-98100D01*
X147350Y-98107D01*
X147250Y-98107D01*
X147250Y-98100D01*
X146862Y-98100D01*
X146800Y-98162D01*
X146799Y-98224D01*
X146831Y-98300D01*
X146800Y-98375D01*
X146799Y-98474D01*
X146799Y-98724D01*
X146831Y-98800D01*
X145568Y-98800D01*
X145599Y-98724D01*
X145600Y-98625D01*
X145600Y-98375D01*
X145575Y-98316D01*
X145657Y-98262D01*
X146099Y-97819D01*
X146184Y-97820D01*
X146340Y-97755D01*
X146460Y-97636D01*
X146524Y-97479D01*
X146525Y-97380D01*
X146655Y-97434D01*
X146799Y-97435D01*
X146799Y-97474D01*
X146799Y-97724D01*
X146831Y-97800D01*
X146799Y-97875D01*
X146800Y-97937D01*
X146862Y-98000D01*
X147250Y-98000D01*
X147250Y-97992D01*
X147350Y-97992D01*
X147350Y-98000D01*
X147737Y-98000D01*
X147800Y-97937D01*
X147800Y-97875D01*
X147789Y-97850D01*
X148150Y-97850D01*
X148150Y-97849D01*
X148264Y-97827D01*
X148264Y-97827D01*
X148362Y-97762D01*
X148399Y-97725D01*
X148400Y-97725D01*
X148400Y-97874D01*
G54D10*
G36*
X148463Y-91625D02*
X148422Y-91685D01*
X148404Y-91774D01*
X148100Y-91774D01*
X148008Y-91812D01*
X147938Y-91883D01*
X147900Y-91975D01*
X147899Y-92074D01*
X147899Y-92250D01*
X147789Y-92250D01*
X147800Y-92224D01*
X147800Y-92162D01*
X147737Y-92100D01*
X147350Y-92100D01*
X147350Y-92107D01*
X147250Y-92107D01*
X147250Y-92100D01*
X147242Y-92100D01*
X147242Y-92000D01*
X147250Y-92000D01*
X147250Y-91992D01*
X147350Y-91992D01*
X147350Y-92000D01*
X147737Y-92000D01*
X147800Y-91937D01*
X147800Y-91875D01*
X147768Y-91799D01*
X147799Y-91724D01*
X147799Y-91724D01*
X147972Y-91551D01*
X148008Y-91586D01*
X148100Y-91624D01*
X148199Y-91625D01*
X148463Y-91625D01*
X148463Y-91625D01*
G37*
G54D20*
X148463Y-91625D02*
X148422Y-91685D01*
X148404Y-91774D01*
X148100Y-91774D01*
X148008Y-91812D01*
X147938Y-91883D01*
X147900Y-91975D01*
X147899Y-92074D01*
X147899Y-92250D01*
X147789Y-92250D01*
X147800Y-92224D01*
X147800Y-92162D01*
X147737Y-92100D01*
X147350Y-92100D01*
X147350Y-92107D01*
X147250Y-92107D01*
X147250Y-92100D01*
X147242Y-92100D01*
X147242Y-92000D01*
X147250Y-92000D01*
X147250Y-91992D01*
X147350Y-91992D01*
X147350Y-92000D01*
X147737Y-92000D01*
X147800Y-91937D01*
X147800Y-91875D01*
X147768Y-91799D01*
X147799Y-91724D01*
X147799Y-91724D01*
X147972Y-91551D01*
X148008Y-91586D01*
X148100Y-91624D01*
X148199Y-91625D01*
X148463Y-91625D01*
G54D10*
G36*
X149076Y-87805D02*
X149005Y-87876D01*
X149000Y-87870D01*
X148994Y-87876D01*
X148923Y-87805D01*
X148929Y-87800D01*
X148923Y-87794D01*
X148994Y-87723D01*
X149000Y-87729D01*
X149005Y-87723D01*
X149076Y-87794D01*
X149070Y-87800D01*
X149076Y-87805D01*
X149076Y-87805D01*
G37*
G54D20*
X149076Y-87805D02*
X149005Y-87876D01*
X149000Y-87870D01*
X148994Y-87876D01*
X148923Y-87805D01*
X148929Y-87800D01*
X148923Y-87794D01*
X148994Y-87723D01*
X149000Y-87729D01*
X149005Y-87723D01*
X149076Y-87794D01*
X149070Y-87800D01*
X149076Y-87805D01*
G54D10*
G36*
X149675Y-88497D02*
X149614Y-88522D01*
X149588Y-88617D01*
X149542Y-88572D01*
X149516Y-88598D01*
X149481Y-88512D01*
X149385Y-88484D01*
X149070Y-88800D01*
X149076Y-88805D01*
X149005Y-88876D01*
X149000Y-88870D01*
X148994Y-88876D01*
X148923Y-88805D01*
X148929Y-88800D01*
X148923Y-88794D01*
X148994Y-88723D01*
X149000Y-88729D01*
X149315Y-88414D01*
X149287Y-88318D01*
X149239Y-88301D01*
X149287Y-88281D01*
X149315Y-88185D01*
X149360Y-88231D01*
X149392Y-88199D01*
X149437Y-88308D01*
X149590Y-88461D01*
X149675Y-88497D01*
X149675Y-88497D01*
G37*
G54D20*
X149675Y-88497D02*
X149614Y-88522D01*
X149588Y-88617D01*
X149542Y-88572D01*
X149516Y-88598D01*
X149481Y-88512D01*
X149385Y-88484D01*
X149070Y-88800D01*
X149076Y-88805D01*
X149005Y-88876D01*
X149000Y-88870D01*
X148994Y-88876D01*
X148923Y-88805D01*
X148929Y-88800D01*
X148923Y-88794D01*
X148994Y-88723D01*
X149000Y-88729D01*
X149315Y-88414D01*
X149287Y-88318D01*
X149239Y-88301D01*
X149287Y-88281D01*
X149315Y-88185D01*
X149360Y-88231D01*
X149392Y-88199D01*
X149437Y-88308D01*
X149590Y-88461D01*
X149675Y-88497D01*
G54D10*
G36*
X150371Y-89450D02*
X150313Y-89508D01*
X150275Y-89600D01*
X150275Y-89603D01*
X150209Y-89538D01*
X150124Y-89502D01*
X150185Y-89477D01*
X150211Y-89382D01*
X149900Y-89070D01*
X149894Y-89076D01*
X149823Y-89005D01*
X149829Y-89000D01*
X149823Y-88994D01*
X149894Y-88923D01*
X149900Y-88929D01*
X150211Y-88617D01*
X150185Y-88522D01*
X150119Y-88499D01*
X150208Y-88462D01*
X150274Y-88396D01*
X150274Y-88549D01*
X150312Y-88641D01*
X150371Y-88700D01*
X150361Y-88710D01*
X150282Y-88688D01*
X149970Y-89000D01*
X150278Y-89307D01*
X150312Y-89391D01*
X150371Y-89450D01*
X150371Y-89450D01*
G37*
G54D20*
X150371Y-89450D02*
X150313Y-89508D01*
X150275Y-89600D01*
X150275Y-89603D01*
X150209Y-89538D01*
X150124Y-89502D01*
X150185Y-89477D01*
X150211Y-89382D01*
X149900Y-89070D01*
X149894Y-89076D01*
X149823Y-89005D01*
X149829Y-89000D01*
X149823Y-88994D01*
X149894Y-88923D01*
X149900Y-88929D01*
X150211Y-88617D01*
X150185Y-88522D01*
X150119Y-88499D01*
X150208Y-88462D01*
X150274Y-88396D01*
X150274Y-88549D01*
X150312Y-88641D01*
X150371Y-88700D01*
X150361Y-88710D01*
X150282Y-88688D01*
X149970Y-89000D01*
X150278Y-89307D01*
X150312Y-89391D01*
X150371Y-89450D01*
G54D10*
G36*
X151330Y-100330D02*
X151325Y-100330D01*
X151325Y-99899D01*
X151325Y-99787D01*
X151262Y-99725D01*
X150850Y-99725D01*
X150850Y-100037D01*
X150912Y-100100D01*
X151025Y-100100D01*
X151124Y-100099D01*
X151216Y-100061D01*
X151287Y-99991D01*
X151325Y-99899D01*
X151325Y-100330D01*
X150750Y-100330D01*
X150750Y-100037D01*
X150750Y-99725D01*
X150337Y-99725D01*
X150275Y-99787D01*
X150274Y-99899D01*
X150312Y-99991D01*
X150383Y-100061D01*
X150475Y-100099D01*
X150574Y-100100D01*
X150687Y-100100D01*
X150750Y-100037D01*
X150750Y-100330D01*
X148893Y-100330D01*
X149287Y-99937D01*
X149287Y-99937D01*
X149352Y-99839D01*
X149374Y-99725D01*
X149375Y-99725D01*
X149375Y-99157D01*
X149437Y-99308D01*
X149590Y-99461D01*
X149791Y-99545D01*
X150007Y-99545D01*
X150208Y-99462D01*
X150361Y-99309D01*
X150367Y-99296D01*
X150371Y-99300D01*
X150312Y-99358D01*
X150274Y-99450D01*
X150275Y-99562D01*
X150337Y-99625D01*
X150750Y-99625D01*
X150750Y-99617D01*
X150850Y-99617D01*
X150850Y-99625D01*
X151262Y-99625D01*
X151325Y-99562D01*
X151325Y-99450D01*
X151287Y-99358D01*
X151228Y-99299D01*
X151286Y-99241D01*
X151324Y-99149D01*
X151325Y-99050D01*
X151325Y-98700D01*
X151287Y-98608D01*
X151228Y-98550D01*
X151287Y-98491D01*
X151325Y-98399D01*
X151325Y-98287D01*
X151262Y-98225D01*
X150850Y-98225D01*
X150850Y-98232D01*
X150750Y-98232D01*
X150750Y-98225D01*
X150742Y-98225D01*
X150742Y-98125D01*
X150750Y-98125D01*
X150750Y-98117D01*
X150850Y-98117D01*
X150850Y-98125D01*
X151262Y-98125D01*
X151325Y-98062D01*
X151325Y-97950D01*
X151287Y-97858D01*
X151228Y-97799D01*
X151286Y-97741D01*
X151324Y-97649D01*
X151325Y-97550D01*
X151325Y-97200D01*
X151287Y-97108D01*
X151228Y-97050D01*
X151287Y-96991D01*
X151325Y-96899D01*
X151325Y-96787D01*
X151262Y-96725D01*
X150850Y-96725D01*
X150850Y-96732D01*
X150750Y-96732D01*
X150750Y-96725D01*
X150742Y-96725D01*
X150742Y-96625D01*
X150750Y-96625D01*
X150750Y-96617D01*
X150850Y-96617D01*
X150850Y-96625D01*
X151262Y-96625D01*
X151325Y-96562D01*
X151325Y-96450D01*
X151287Y-96358D01*
X151228Y-96299D01*
X151286Y-96241D01*
X151324Y-96149D01*
X151325Y-96050D01*
X151325Y-95700D01*
X151287Y-95608D01*
X151228Y-95550D01*
X151287Y-95491D01*
X151325Y-95399D01*
X151325Y-95287D01*
X151262Y-95225D01*
X150850Y-95225D01*
X150850Y-95232D01*
X150750Y-95232D01*
X150750Y-95225D01*
X150742Y-95225D01*
X150742Y-95125D01*
X150750Y-95125D01*
X150750Y-95117D01*
X150850Y-95117D01*
X150850Y-95125D01*
X151262Y-95125D01*
X151325Y-95062D01*
X151325Y-94950D01*
X151287Y-94858D01*
X151228Y-94799D01*
X151286Y-94741D01*
X151324Y-94649D01*
X151325Y-94550D01*
X151325Y-94200D01*
X151287Y-94108D01*
X151228Y-94050D01*
X151287Y-93991D01*
X151325Y-93899D01*
X151325Y-93787D01*
X151262Y-93725D01*
X150850Y-93725D01*
X150850Y-93732D01*
X150750Y-93732D01*
X150750Y-93725D01*
X150742Y-93725D01*
X150742Y-93625D01*
X150750Y-93625D01*
X150750Y-93617D01*
X150850Y-93617D01*
X150850Y-93625D01*
X151262Y-93625D01*
X151325Y-93562D01*
X151325Y-93450D01*
X151287Y-93358D01*
X151228Y-93299D01*
X151286Y-93241D01*
X151324Y-93149D01*
X151325Y-93050D01*
X151325Y-92700D01*
X151287Y-92608D01*
X151216Y-92538D01*
X151124Y-92500D01*
X151074Y-92500D01*
X151124Y-92499D01*
X151216Y-92461D01*
X151287Y-92391D01*
X151325Y-92299D01*
X151325Y-92187D01*
X151262Y-92125D01*
X150850Y-92125D01*
X150850Y-92132D01*
X150750Y-92132D01*
X150750Y-92125D01*
X150742Y-92125D01*
X150742Y-92025D01*
X150750Y-92025D01*
X150750Y-92017D01*
X150850Y-92017D01*
X150850Y-92025D01*
X151262Y-92025D01*
X151325Y-91962D01*
X151325Y-91850D01*
X151287Y-91758D01*
X151228Y-91699D01*
X151286Y-91641D01*
X151324Y-91549D01*
X151325Y-91450D01*
X151325Y-91100D01*
X151287Y-91008D01*
X151228Y-90950D01*
X151287Y-90891D01*
X151325Y-90799D01*
X151325Y-90687D01*
X151262Y-90625D01*
X150850Y-90625D01*
X150850Y-90632D01*
X150750Y-90632D01*
X150750Y-90625D01*
X150742Y-90625D01*
X150742Y-90525D01*
X150750Y-90525D01*
X150750Y-90517D01*
X150850Y-90517D01*
X150850Y-90525D01*
X151262Y-90525D01*
X151325Y-90462D01*
X151325Y-90350D01*
X151287Y-90258D01*
X151228Y-90199D01*
X151286Y-90141D01*
X151324Y-90049D01*
X151325Y-89950D01*
X151325Y-89600D01*
X151287Y-89508D01*
X151228Y-89450D01*
X151287Y-89391D01*
X151325Y-89299D01*
X151325Y-89187D01*
X151262Y-89125D01*
X150850Y-89125D01*
X150850Y-89132D01*
X150750Y-89132D01*
X150750Y-89125D01*
X150742Y-89125D01*
X150742Y-89025D01*
X150750Y-89025D01*
X150750Y-89017D01*
X150850Y-89017D01*
X150850Y-89025D01*
X151262Y-89025D01*
X151325Y-88962D01*
X151325Y-88850D01*
X151287Y-88758D01*
X151228Y-88699D01*
X151286Y-88641D01*
X151324Y-88549D01*
X151325Y-88450D01*
X151325Y-88100D01*
X151287Y-88008D01*
X151216Y-87938D01*
X151124Y-87900D01*
X151025Y-87899D01*
X150924Y-87899D01*
X150112Y-87087D01*
X150014Y-87022D01*
X149900Y-87000D01*
X148800Y-87000D01*
X148685Y-87022D01*
X148587Y-87087D01*
X148326Y-87348D01*
X148311Y-87334D01*
X148109Y-87250D01*
X147891Y-87249D01*
X147688Y-87333D01*
X147534Y-87488D01*
X147500Y-87569D01*
X147466Y-87488D01*
X147311Y-87334D01*
X147109Y-87250D01*
X146891Y-87249D01*
X146688Y-87333D01*
X146673Y-87349D01*
X146193Y-86869D01*
X151000Y-86869D01*
X151330Y-86869D01*
X151330Y-100300D01*
X151330Y-100330D01*
X151330Y-100330D01*
G37*
G54D20*
X151330Y-100330D02*
X151325Y-100330D01*
X151325Y-99899D01*
X151325Y-99787D01*
X151262Y-99725D01*
X150850Y-99725D01*
X150850Y-100037D01*
X150912Y-100100D01*
X151025Y-100100D01*
X151124Y-100099D01*
X151216Y-100061D01*
X151287Y-99991D01*
X151325Y-99899D01*
X151325Y-100330D01*
X150750Y-100330D01*
X150750Y-100037D01*
X150750Y-99725D01*
X150337Y-99725D01*
X150275Y-99787D01*
X150274Y-99899D01*
X150312Y-99991D01*
X150383Y-100061D01*
X150475Y-100099D01*
X150574Y-100100D01*
X150687Y-100100D01*
X150750Y-100037D01*
X150750Y-100330D01*
X148893Y-100330D01*
X149287Y-99937D01*
X149287Y-99937D01*
X149352Y-99839D01*
X149374Y-99725D01*
X149375Y-99725D01*
X149375Y-99157D01*
X149437Y-99308D01*
X149590Y-99461D01*
X149791Y-99545D01*
X150007Y-99545D01*
X150208Y-99462D01*
X150361Y-99309D01*
X150367Y-99296D01*
X150371Y-99300D01*
X150312Y-99358D01*
X150274Y-99450D01*
X150275Y-99562D01*
X150337Y-99625D01*
X150750Y-99625D01*
X150750Y-99617D01*
X150850Y-99617D01*
X150850Y-99625D01*
X151262Y-99625D01*
X151325Y-99562D01*
X151325Y-99450D01*
X151287Y-99358D01*
X151228Y-99299D01*
X151286Y-99241D01*
X151324Y-99149D01*
X151325Y-99050D01*
X151325Y-98700D01*
X151287Y-98608D01*
X151228Y-98550D01*
X151287Y-98491D01*
X151325Y-98399D01*
X151325Y-98287D01*
X151262Y-98225D01*
X150850Y-98225D01*
X150850Y-98232D01*
X150750Y-98232D01*
X150750Y-98225D01*
X150742Y-98225D01*
X150742Y-98125D01*
X150750Y-98125D01*
X150750Y-98117D01*
X150850Y-98117D01*
X150850Y-98125D01*
X151262Y-98125D01*
X151325Y-98062D01*
X151325Y-97950D01*
X151287Y-97858D01*
X151228Y-97799D01*
X151286Y-97741D01*
X151324Y-97649D01*
X151325Y-97550D01*
X151325Y-97200D01*
X151287Y-97108D01*
X151228Y-97050D01*
X151287Y-96991D01*
X151325Y-96899D01*
X151325Y-96787D01*
X151262Y-96725D01*
X150850Y-96725D01*
X150850Y-96732D01*
X150750Y-96732D01*
X150750Y-96725D01*
X150742Y-96725D01*
X150742Y-96625D01*
X150750Y-96625D01*
X150750Y-96617D01*
X150850Y-96617D01*
X150850Y-96625D01*
X151262Y-96625D01*
X151325Y-96562D01*
X151325Y-96450D01*
X151287Y-96358D01*
X151228Y-96299D01*
X151286Y-96241D01*
X151324Y-96149D01*
X151325Y-96050D01*
X151325Y-95700D01*
X151287Y-95608D01*
X151228Y-95550D01*
X151287Y-95491D01*
X151325Y-95399D01*
X151325Y-95287D01*
X151262Y-95225D01*
X150850Y-95225D01*
X150850Y-95232D01*
X150750Y-95232D01*
X150750Y-95225D01*
X150742Y-95225D01*
X150742Y-95125D01*
X150750Y-95125D01*
X150750Y-95117D01*
X150850Y-95117D01*
X150850Y-95125D01*
X151262Y-95125D01*
X151325Y-95062D01*
X151325Y-94950D01*
X151287Y-94858D01*
X151228Y-94799D01*
X151286Y-94741D01*
X151324Y-94649D01*
X151325Y-94550D01*
X151325Y-94200D01*
X151287Y-94108D01*
X151228Y-94050D01*
X151287Y-93991D01*
X151325Y-93899D01*
X151325Y-93787D01*
X151262Y-93725D01*
X150850Y-93725D01*
X150850Y-93732D01*
X150750Y-93732D01*
X150750Y-93725D01*
X150742Y-93725D01*
X150742Y-93625D01*
X150750Y-93625D01*
X150750Y-93617D01*
X150850Y-93617D01*
X150850Y-93625D01*
X151262Y-93625D01*
X151325Y-93562D01*
X151325Y-93450D01*
X151287Y-93358D01*
X151228Y-93299D01*
X151286Y-93241D01*
X151324Y-93149D01*
X151325Y-93050D01*
X151325Y-92700D01*
X151287Y-92608D01*
X151216Y-92538D01*
X151124Y-92500D01*
X151074Y-92500D01*
X151124Y-92499D01*
X151216Y-92461D01*
X151287Y-92391D01*
X151325Y-92299D01*
X151325Y-92187D01*
X151262Y-92125D01*
X150850Y-92125D01*
X150850Y-92132D01*
X150750Y-92132D01*
X150750Y-92125D01*
X150742Y-92125D01*
X150742Y-92025D01*
X150750Y-92025D01*
X150750Y-92017D01*
X150850Y-92017D01*
X150850Y-92025D01*
X151262Y-92025D01*
X151325Y-91962D01*
X151325Y-91850D01*
X151287Y-91758D01*
X151228Y-91699D01*
X151286Y-91641D01*
X151324Y-91549D01*
X151325Y-91450D01*
X151325Y-91100D01*
X151287Y-91008D01*
X151228Y-90950D01*
X151287Y-90891D01*
X151325Y-90799D01*
X151325Y-90687D01*
X151262Y-90625D01*
X150850Y-90625D01*
X150850Y-90632D01*
X150750Y-90632D01*
X150750Y-90625D01*
X150742Y-90625D01*
X150742Y-90525D01*
X150750Y-90525D01*
X150750Y-90517D01*
X150850Y-90517D01*
X150850Y-90525D01*
X151262Y-90525D01*
X151325Y-90462D01*
X151325Y-90350D01*
X151287Y-90258D01*
X151228Y-90199D01*
X151286Y-90141D01*
X151324Y-90049D01*
X151325Y-89950D01*
X151325Y-89600D01*
X151287Y-89508D01*
X151228Y-89450D01*
X151287Y-89391D01*
X151325Y-89299D01*
X151325Y-89187D01*
X151262Y-89125D01*
X150850Y-89125D01*
X150850Y-89132D01*
X150750Y-89132D01*
X150750Y-89125D01*
X150742Y-89125D01*
X150742Y-89025D01*
X150750Y-89025D01*
X150750Y-89017D01*
X150850Y-89017D01*
X150850Y-89025D01*
X151262Y-89025D01*
X151325Y-88962D01*
X151325Y-88850D01*
X151287Y-88758D01*
X151228Y-88699D01*
X151286Y-88641D01*
X151324Y-88549D01*
X151325Y-88450D01*
X151325Y-88100D01*
X151287Y-88008D01*
X151216Y-87938D01*
X151124Y-87900D01*
X151025Y-87899D01*
X150924Y-87899D01*
X150112Y-87087D01*
X150014Y-87022D01*
X149900Y-87000D01*
X148800Y-87000D01*
X148685Y-87022D01*
X148587Y-87087D01*
X148326Y-87348D01*
X148311Y-87334D01*
X148109Y-87250D01*
X147891Y-87249D01*
X147688Y-87333D01*
X147534Y-87488D01*
X147500Y-87569D01*
X147466Y-87488D01*
X147311Y-87334D01*
X147109Y-87250D01*
X146891Y-87249D01*
X146688Y-87333D01*
X146673Y-87349D01*
X146193Y-86869D01*
X151000Y-86869D01*
X151330Y-86869D01*
X151330Y-100300D01*
X151330Y-100330D01*
M02*
